<?xml version="1.0" standalone="no"?>
<!DOCTYPE svg PUBLIC "-//W3C//DTD SVG 20010904//EN"
 "http://www.w3.org/TR/2001/REC-SVG-20010904/DTD/svg10.dtd">
<svg version="1.0" xmlns="http://www.w3.org/2000/svg"
 width="463.000000pt" height="280.000000pt" viewBox="0 0 463.000000 280.000000"
 preserveAspectRatio="xMidYMid meet">

<g transform="translate(0.000000,280.000000) scale(0.100000,-0.100000)"
fill="#000000" stroke="none">
<path d="M2510 1828 c-24 -9 -34 -47 -26 -93 6 -31 4 -36 -18 -46 -21 -10 -27
-8 -53 21 -24 27 -34 32 -56 26 -44 -11 -76 -47 -80 -91 -3 -33 -8 -41 -28
-43 -13 -2 -32 -10 -43 -18 -27 -19 -36 -18 -36 5 0 10 -7 24 -15 31 -20 17
-19 27 4 35 23 7 31 44 21 92 -10 44 -17 51 -58 59 -30 6 -33 4 -47 -29 -9
-21 -12 -48 -9 -66 5 -24 3 -31 -10 -31 -9 0 -16 -4 -16 -9 0 -4 -18 -28 -39
-53 -35 -39 -41 -53 -51 -127 -9 -61 -10 -85 -1 -94 6 -6 11 -19 11 -29 0 -10
5 -27 12 -37 9 -15 9 -25 0 -46 -7 -14 -12 -48 -12 -75 0 -63 -18 -145 -41
-191 -16 -32 -28 -87 -43 -194 -2 -16 -7 -42 -11 -57 l-7 -28 -148 0 c-81 0
-209 -3 -285 -7 -145 -7 -164 0 -89 32 43 18 47 8 -83 199 -105 154 -132 210
-107 224 13 7 14 18 6 68 -6 32 -13 110 -17 173 -7 130 -21 171 -71 218 -33
30 -35 35 -29 73 9 51 -13 80 -59 80 -47 0 -59 -13 -59 -61 -1 -57 9 -86 33
-92 16 -4 18 -11 13 -48 -3 -24 -10 -52 -14 -61 -5 -9 -9 -49 -9 -89 0 -87
-20 -123 -86 -160 -42 -22 -43 -23 -63 -4 -20 17 -22 17 -41 0 -11 -10 -34
-40 -51 -67 -31 -47 -31 -50 -13 -63 142 -102 161 -114 173 -102 9 9 10 3 5
-23 -21 -119 -34 -158 -63 -189 -17 -18 -31 -39 -31 -46 0 -15 -22 -25 -56
-25 -32 0 -30 -16 4 -28 21 -8 -3 -11 -103 -12 -71 -2 -193 -5 -270 -9 l-140
-6 200 -10 c251 -12 3762 -11 3940 2 l130 8 -205 8 c-179 7 -209 11 -237 28
-24 15 -32 27 -32 47 2 32 25 170 45 267 9 38 15 92 16 119 0 46 1 49 14 31 8
-10 14 -25 14 -32 0 -7 7 -13 15 -13 23 0 18 29 -16 82 -30 47 -31 52 -27 130
4 70 2 87 -15 116 -18 31 -19 36 -5 46 25 18 34 49 28 91 -4 32 -10 41 -28 43
-13 2 -35 -4 -48 -13 -22 -14 -25 -22 -22 -63 3 -40 0 -47 -17 -50 -30 -6 -62
-40 -69 -73 -6 -33 -37 -39 -69 -15 -17 13 -17 15 2 47 28 45 26 75 -4 105
-23 23 -27 24 -47 10 -19 -14 -24 -14 -48 1 -25 14 -29 14 -53 -2 -20 -13 -27
-26 -27 -51 0 -18 5 -36 10 -39 18 -11 11 -33 -12 -40 -13 -4 -35 -18 -50 -32
-14 -14 -32 -23 -39 -21 -8 3 -21 -4 -29 -15 -15 -18 -15 -13 -6 56 8 65 7 80
-7 101 -21 31 -22 46 -3 46 32 0 31 104 -1 135 -21 21 -61 19 -75 -5 -7 -11
-21 -20 -31 -20 -10 0 -28 -5 -39 -11 -14 -8 -23 -8 -31 0 -31 31 -109 -8
-127 -64 -7 -20 -9 -39 -6 -42 3 -4 -3 -17 -15 -29 -17 -18 -22 -39 -27 -109
-2 -47 -9 -82 -13 -78 -5 5 -4 48 2 96 10 82 9 89 -10 113 -23 30 -28 64 -8
64 19 0 36 55 30 102 -5 50 -2 46 -33 48 -48 4 -60 0 -75 -30 -10 -19 -20 -27
-30 -24 -8 4 -21 1 -28 -4 -8 -7 -18 -7 -27 -2 -8 6 -28 10 -43 10 -23 0 -31
-7 -42 -35 -11 -25 -12 -41 -5 -60 13 -35 13 -35 -9 -35 -11 0 -28 -15 -41
-35 -12 -19 -28 -39 -37 -43 -8 -5 -20 -35 -26 -68 -11 -51 -15 -59 -35 -58
-12 0 -22 -5 -22 -12 0 -6 -7 -15 -16 -18 -14 -6 -15 4 -9 84 6 75 4 94 -8
108 -9 9 -19 30 -22 45 -6 23 -4 29 13 34 16 4 22 15 26 47 11 88 9 90 -78 96
-43 3 -86 2 -96 -2z m1239 -324 c-17 -21 -31 -17 -17 5 7 11 16 17 20 14 5 -2
4 -11 -3 -19z m-1493 -212 c-10 -10 -29 15 -21 28 6 9 10 8 17 -4 6 -10 7 -20
4 -24z m920 -35 c4 -18 7 -70 8 -117 0 -73 -3 -92 -23 -124 -24 -39 -32 -40
-39 -3 -7 34 -6 55 11 158 9 53 13 107 10 120 -6 21 -4 22 9 11 9 -7 19 -27
24 -45z m-966 -7 c0 -5 11 -10 24 -10 19 0 26 -7 31 -31 9 -42 -3 -153 -20
-175 -11 -16 -14 -11 -24 41 -6 33 -18 80 -25 104 -13 45 -11 81 5 81 5 0 9
-4 9 -10z m1666 -48 c-12 -11 -18 7 -10 30 l8 23 4 -23 c2 -13 1 -26 -2 -30z
m-1188 -137 c-7 -54 -15 -76 -35 -95 l-25 -25 7 50 c3 28 14 83 23 122 15 70
16 71 28 45 8 -19 8 -48 2 -97z m1152 77 c0 -11 3 -13 8 -5 4 6 16 13 27 15
18 3 21 -5 29 -75 8 -72 7 -82 -14 -120 -43 -79 -48 -78 -49 9 -1 44 -6 97
-11 119 -13 52 -13 88 0 80 6 -3 10 -14 10 -23z m-1813 -192 c-32 -41 -64 -79
-69 -85 -16 -16 2 77 18 96 8 8 14 19 14 23 0 3 14 37 31 74 l31 67 17 -50 18
-50 -60 -75z m1890 148 c-3 -8 -6 -5 -6 6 -1 11 2 17 5 13 3 -3 4 -12 1 -19z
m-2782 -123 c47 -63 95 -130 106 -149 25 -43 18 -76 -17 -76 -13 0 -24 -4 -24
-10 0 -6 -62 -10 -165 -10 -91 0 -165 3 -165 8 1 61 149 370 171 357 4 -3 47
-57 94 -120z m1245 43 c0 -22 -5 -28 -21 -28 -11 0 -30 -5 -41 -11 -11 -6 -18
-7 -16 -2 10 20 36 80 42 98 7 19 8 19 21 -5 8 -14 14 -37 15 -52z m894 38
c-3 -15 -8 -25 -11 -23 -2 3 -1 17 3 31 3 15 8 25 11 23 2 -3 1 -17 -3 -31z
m-433 -7 c-5 -13 -10 -19 -10 -12 -1 15 10 45 15 40 3 -2 0 -15 -5 -28z m1086
-21 c-2 -13 -4 -5 -4 17 -1 22 1 32 4 23 2 -10 2 -28 0 -40z m-990 -10 c11
-24 -6 -61 -58 -128 -25 -33 -26 -40 -18 -83 5 -27 11 -53 14 -58 4 -5 1 -9
-5 -9 -6 0 -17 14 -24 31 -11 25 -11 44 -1 95 6 35 19 72 27 81 9 10 21 35 29
56 15 43 22 46 36 15z m451 -45 c-7 -9 -8 -14 -2 -10 7 4 12 -7 13 -31 1 -20
3 -48 4 -62 1 -16 -4 -26 -15 -28 -21 -4 -24 28 -6 57 9 15 9 25 0 46 -15 33
-15 58 1 74 18 18 23 -25 5 -46z m102 18 c0 -10 -7 -24 -15 -31 -13 -11 -15
-8 -15 17 0 16 3 33 6 36 11 10 24 -3 24 -22z m176 -133 c-15 -21 -16 -20 -16
38 0 35 5 65 13 73 20 20 22 -83 3 -111z m-1385 89 c-10 -9 -11 -8 -5 6 3 10
9 15 12 12 3 -3 0 -11 -7 -18z m271 -47 c-5 -39 -12 -56 -23 -58 -15 -3 -15 2
-3 48 23 89 36 94 26 10z m1399 -7 c-4 -28 -6 -32 -9 -15 -3 22 3 52 11 52 1
0 1 -17 -2 -37z m-955 -9 c4 -17 1 -37 -10 -55 -10 -16 -15 -33 -12 -38 4 -5
0 -12 -6 -15 -9 -3 -7 -9 6 -20 19 -15 18 -16 -12 -16 -31 0 -32 1 -32 46 0
44 33 124 52 124 4 0 11 -12 14 -26z m518 -13 c-16 -28 -44 -43 -44 -24 0 10
53 64 58 59 2 -3 -4 -18 -14 -35z m-829 -23 c-6 -104 -19 -123 -61 -93 -29 19
-21 53 23 104 19 23 36 41 38 41 2 0 2 -24 0 -52z m1254 -75 c1 -40 -1 -43
-25 -43 -14 0 -23 4 -19 10 3 6 1 10 -4 10 -19 0 -12 72 11 109 l23 36 7 -40
c4 -22 7 -59 7 -82z m-1856 43 l-6 -58 -25 26 -25 25 27 36 c16 20 30 35 32
33 1 -2 0 -30 -3 -62z m687 -9 c0 -39 -18 -90 -21 -59 -1 15 -1 53 0 88 2 43
21 16 21 -29z m808 -23 c7 -23 12 -44 12 -48 0 -9 -46 -7 -75 4 -23 9 -24 12
-13 32 21 37 51 69 58 61 4 -5 12 -27 18 -49z m-275 21 c-3 -9 -8 -14 -10 -11
-3 3 -2 9 2 15 9 16 15 13 8 -4z m-1278 -53 c19 -11 18 -11 -7 -12 -33 0 -85
41 -74 59 6 9 15 6 35 -12 14 -13 35 -29 46 -35z m1285 -2 c0 -5 -4 -10 -10
-10 -5 0 -10 5 -10 10 0 6 5 10 10 10 6 0 10 -4 10 -10z m125 0 c3 -5 1 -10
-4 -10 -6 0 -11 5 -11 10 0 6 2 10 4 10 3 0 8 -4 11 -10z"/>
</g>
</svg>
